Coordinates
version=1
nRows=11
nColumns=40
inDegrees=yes

Units are S.I. units (second, meters, Newtons, ...)
Angles are in degrees.

endheader
time	pelvis_tilt	pelvis_list	pelvis_rotation	pelvis_tx	pelvis_ty	pelvis_tz	hip_flexion_r	hip_adduction_r	hip_rotation_r	knee_angle_r	knee_angle_r_beta	ankle_angle_r	subtalar_angle_r	mtp_angle_r	hip_flexion_l	hip_adduction_l	hip_rotation_l	knee_angle_l	knee_angle_l_beta	ankle_angle_l	subtalar_angle_l	mtp_angle_l	lumbar_extension	lumbar_bending	lumbar_rotation	arm_flex_r	arm_add_r	arm_rot_r	elbow_flex_r	pro_sup_r	wrist_flex_r	wrist_dev_r	arm_flex_l	arm_add_l	arm_rot_l	elbow_flex_l	pro_sup_l	wrist_flex_l	wrist_dev_l
     41.15214286	     -5.69231989	     -3.84299210	     -1.48376111	      0.99895167	      0.91969178	      0.41642543	     29.45156962	     -1.87158780	    -13.87823544	     17.05015970	     17.05015970	      2.42569875	     -0.22378602	      6.90613761	     -0.12702949	     -4.21996156	    -12.79876993	     12.46397980	     12.46397980	     18.64876816	     -3.54075595	     -4.29136894	    -11.30302582	      5.20522160	      1.98785409	    -19.52463499	    -13.41908863	     -5.48925326	     27.51449195	     46.77037433	      0.00000000	      0.00000000	     25.08698591	    -18.48914682	     -7.65657981	     83.84583605	     47.19675901	      0.00000000	      0.00000000
     41.16428571	     -5.68465685	     -3.66761274	     -1.30540365	      1.00067329	      0.91797654	      0.41831218	     29.10669424	     -1.84744567	    -14.18481671	     17.03686160	     17.03686160	      2.48954118	     -0.42039578	      6.90339812	     -0.75544412	     -4.17964217	    -12.70017832	     12.48126894	     12.48126894	     19.03299444	     -3.34851956	     -4.45040245	    -10.95186232	      5.03661389	      1.80037370	    -20.21739535	    -13.21493176	     -5.49199825	     27.43938782	     46.76481526	      0.00000000	      0.00000000	     25.30140495	    -18.54907946	     -7.77673705	     84.33715561	     47.21836917	      0.00000000	      0.00000000
     41.17642857	     -5.51756034	     -3.61639051	     -1.25702940	      1.00267795	      0.91660384	      0.42065987	     28.56089026	     -1.62474829	    -14.19065250	     17.19296906	     17.19296906	      2.08638248	     -0.96995818	      5.47187511	     -1.55397084	     -4.41849284	    -13.48187553	     12.65904565	     12.65904565	     19.82005322	     -1.92662331	     -4.27418094	    -10.96509665	      4.90333073	      1.73786193	    -21.12533980	    -13.05809551	     -5.62114481	     29.14106360	     46.66017493	      0.00000000	      0.00000000	     24.64005085	    -18.48755900	     -8.48456171	     87.42499091	     47.37455298	      0.00000000	      0.00000000
     41.18857143	     -5.47469609	     -3.58525827	     -1.11635782	      1.00461108	      0.91540462	      0.42289625	     28.23827172	     -1.50732654	    -14.24273049	     17.74475546	     17.74475546	      2.18467512	     -1.35383556	      5.21095290	     -2.17349759	     -4.57546331	    -13.35502816	     12.78808113	     12.78808113	     20.10197321	     -1.89155872	     -4.29980098	    -10.68942568	      4.87560008	      1.74681152	    -21.41644920	    -12.77395938	     -5.53917910	     29.04335932	     46.65316028	      0.00000000	      0.00000000	     24.69749820	    -18.35176307	     -8.54718749	     87.71727902	     47.38841160	      0.00000000	      0.00000000
     41.20071429	     -5.44843764	     -3.42775939	     -1.09866786	      1.00650952	      0.91423690	      0.42542031	     28.21934936	     -1.45224954	    -13.58367066	     18.86230706	     18.86230706	      2.06981512	     -2.68616626	      3.93126708	     -2.65901692	     -4.66308681	    -13.53925360	     13.19416058	     13.19416058	     20.60682196	     -1.58806025	     -3.94925337	    -10.50011399	      4.64317415	      2.10135689	    -21.61246167	    -12.49691260	     -5.27183071	     28.99425702	     46.62267930	      0.00000000	      0.00000000	     24.59110804	    -17.83497203	     -8.82071196	     89.05096844	     47.45194727	      0.00000000	      0.00000000
     41.21285714	     -5.32949837	     -3.40010542	     -1.03076287	      1.00847629	      0.91359495	      0.42797874	     28.01856517	     -1.33130555	    -13.15729924	     19.95816609	     19.95816609	      2.24142615	     -3.58159572	      3.05950697	     -3.13768525	     -4.91579427	    -13.54649799	     13.77541398	     13.77541398	     20.92603565	     -1.54865277	     -3.75777360	    -10.39573969	      4.58456602	      2.19368885	    -21.48300428	    -12.35720338	     -5.10317429	     28.98522714	     46.60589854	      0.00000000	      0.00000000	     24.35645347	    -17.64982673	     -9.01964268	     89.62867827	     47.48646013	      0.00000000	      0.00000000
     41.22500000	     -5.17297760	     -3.45737312	     -0.97278763	      1.01058529	      0.91353608	      0.43061656	     27.62385900	     -1.13546486	    -12.90296480	     20.83062167	     20.83062167	      2.60149412	     -4.08785226	      2.59861455	     -3.66495036	     -5.25650769	    -13.50108061	     14.32391371	     14.32391371	     21.00918455	     -1.69317624	     -3.69192962	    -10.32946768	      4.64971563	      2.36123337	    -21.12893711	    -12.07821395	     -4.99416627	     29.06468103	     46.59537044	      0.00000000	      0.00000000	     23.83174989	    -17.31079459	     -9.00329755	     89.75980774	     47.48894533	      0.00000000	      0.00000000
     41.23714286	     -5.00367342	     -3.39137969	     -0.96130201	      1.01256128	      0.91365888	      0.43326414	     27.38100355	     -1.05884741	    -12.42150093	     21.98319509	     21.98319509	      3.07934760	     -4.94276928	      2.02075299	     -3.95604260	     -5.51948580	    -13.45404056	     15.34542121	     15.34542121	     21.07379264	     -1.94783902	     -3.63748754	    -10.34009296	      4.60720726	      2.59280936	    -20.66623370	    -11.97799385	     -4.86487724	     29.10494919	     46.58558910	      0.00000000	      0.00000000	     23.36820707	    -16.97567181	     -9.11837687	     90.09085725	     47.50578060	      0.00000000	      0.00000000
     41.24928571	     -5.07852003	     -3.39035764	     -0.88879038	      1.01438276	      0.91382960	      0.43619569	     27.21614597	     -0.75718209	    -11.52110559	     22.68450480	     22.68450480	      3.02553509	     -6.63901912	      0.55928538	     -3.61786611	     -6.03954744	    -13.59699784	     17.07533171	     17.07533171	     21.57757506	     -1.73847608	     -2.69409885	    -10.09189136	      4.49431593	      1.87429624	    -19.23964575	    -12.12467503	     -3.60919815	     28.44094048	     46.50859887	      0.00000000	      0.00000000	     21.74482246	    -16.86492170	    -10.80382996	     91.87310248	     47.70179769	      0.00000000	      0.00000000
     41.26142857	     -4.98169771	     -3.36089998	     -0.80042277	      1.01616946	      0.91463726	      0.43891375	     26.80030717	     -0.67842656	    -11.38606175	     23.35255547	     23.35255547	      3.66068976	     -6.88212086	      0.25553643	     -3.43493343	     -6.43128591	    -13.28596999	     18.71584773	     18.71584773	     21.18937132	     -2.50301686	     -2.89604048	    -10.04288141	      4.45054572	      2.05472481	    -18.44924241	    -12.05707766	     -3.27014920	     28.54381260	     46.48043005	      0.00000000	      0.00000000	     21.10126879	    -16.46687242	    -10.81664947	     91.68086915	     47.71023897	      0.00000000	      0.00000000
     41.27357143	     -4.88155752	     -3.36780735	     -0.68160258	      1.01785607	      0.91578829	      0.44165345	     26.21957943	     -0.53867814	    -11.30873841	     23.70045672	     23.70045672	      4.30863396	     -7.04240529	      0.10837681	     -3.03406647	     -6.90921537	    -12.88295415	     20.70992907	     20.70992907	     20.52805670	     -3.45330817	     -3.35372544	    -10.02168031	      4.43844460	      2.14740301	    -17.47506971	    -12.02956773	     -2.96910508	     28.76317578	     46.45260666	      0.00000000	      0.00000000	     20.29220654	    -16.07629287	    -10.89698779	     91.37374150	     47.71810779	      0.00000000	      0.00000000
